<svg width="30" height="28" viewBox="0 0 30 28" fill="none" xmlns="http://www.w3.org/2000/svg">
<path d="M27.6667 28L17.1667 18.2C16.3333 18.8222 15.375 19.3148 14.2917 19.6778C13.2083 20.0407 12.0556 20.2222 10.8333 20.2222C7.80556 20.2222 5.24333 19.2433 3.14667 17.2853C1.05 15.3274 0.00111199 12.936 8.81834e-07 10.1111C-0.00111023 7.28622 1.04778 4.89481 3.14667 2.93689C5.24556 0.978963 7.80778 0 10.8333 0C13.8589 0 16.4217 0.978963 18.5217 2.93689C20.6217 4.89481 21.67 7.28622 21.6667 10.1111C21.6667 11.2519 21.4722 12.3278 21.0833 13.3389C20.6944 14.35 20.1667 15.2444 19.5 16.0222L30 25.8222L27.6667 28ZM10.8333 17.1111C12.9167 17.1111 14.6878 16.4308 16.1467 15.0702C17.6056 13.7096 18.3344 12.0566 18.3333 10.1111C18.3322 8.16563 17.6033 6.51311 16.1467 5.15356C14.69 3.794 12.9189 3.11319 10.8333 3.11111C8.74778 3.10904 6.97722 3.78985 5.52167 5.15356C4.06611 6.51726 3.33667 8.16978 3.33333 10.1111C3.33 12.0524 4.05945 13.7055 5.52167 15.0702C6.98389 16.435 8.75444 17.1153 10.8333 17.1111Z" fill="black"/>
</svg>
